<?xml version="1.0" encoding="UTF-8" standalone="no"?>
<svg width="40px" height="40px" viewBox="0 0 40 40" version="1.1" xmlns="http://www.w3.org/2000/svg" xmlns:xlink="http://www.w3.org/1999/xlink" xmlns:sketch="http://www.bohemiancoding.com/sketch/ns">
    <!-- Generator: Sketch 3.4 (15575) - http://www.bohemiancoding.com/sketch -->
    <title>Rectangle 28 Copy 11 + Imported Layers</title>
    <desc>Created with Sketch.</desc>
    <defs></defs>
    <g id="Landing" stroke="none" stroke-width="1" fill="none" fill-rule="evenodd" sketch:type="MSPage">
        <g id="Live" sketch:type="MSArtboardGroup" transform="translate(-1184.000000, -465.000000)">
            <g id="Rectangle-28-Copy-11-+-Imported-Layers" sketch:type="MSLayerGroup" transform="translate(1184.000000, 465.000000)">
                <g sketch:type="MSShapeGroup">
                    <g>
                        <rect id="Rectangle-28-Copy-11" stroke="#FFFFFF" x="0" y="0" width="40" height="40" rx="40"></rect>
                        <path d="M13.2876923,14.0544872 L13.2646154,14.0544872 C12.5953846,14.0544872 12.0507692,13.8613462 11.6307692,13.470641 C11.2107692,13.0828846 11,12.6007692 11,12.0272436 C11,11.4404487 11.2138462,10.956859 11.6415385,10.5735256 C12.0692308,10.1916667 12.6307692,10 13.3292308,10 C14.0138462,10 14.5615385,10.1916667 14.9753846,10.5735256 C15.3876923,10.956859 15.6015385,11.4404487 15.6153846,12.0272436 C15.6153846,12.6007692 15.4030769,13.0828846 14.9753846,13.470641 C14.5476923,13.8613462 13.9846154,14.0544872 13.2876923,14.0544872 L13.2876923,14.0544872 Z M11.3846154,15.8974359 L15.2307692,15.8974359 L15.2307692,27.3237179 L11.3846154,27.3237179 L11.3846154,15.8974359 Z M21.3846154,27.3237179 L21.3846154,20.6891026 C21.3846154,19.9799359 21.5876923,19.4344231 21.9938462,19.0510897 C22.4,18.6692308 22.9092308,18.4775641 23.5215385,18.4775641 C24.1492308,18.4775641 24.6538462,18.6898718 25.0384615,19.1130128 C25.4230769,19.5361538 25.6153846,20.1848718 25.6153846,21.0576923 L25.6153846,27.3237179 L29.4615385,27.3237179 L29.4615385,20.6891026 C29.4615385,19.0658333 29.0384615,17.799359 28.1907692,16.8911538 C27.3430769,15.9829487 26.2276923,15.5288462 24.8461538,15.5288462 C23.4369231,15.5288462 22.2830769,16.1775641 21.3846154,17.475 L21.2569231,15.8974359 L17.4753846,15.8974359 L17.5384615,18.4775641 L17.5384615,27.3237179 L21.3846154,27.3237179 L21.3846154,27.3237179 Z" id="Imported-Layers" fill="#FFFFFF"></path>
                    </g>
                </g>
            </g>
        </g>
    </g>
</svg>
