<?xml version="1.0" encoding="UTF-8" standalone="no"?>
<svg width="19px" height="18px" viewBox="0 0 19 18" version="1.1" xmlns="http://www.w3.org/2000/svg" xmlns:xlink="http://www.w3.org/1999/xlink" xmlns:sketch="http://www.bohemiancoding.com/sketch/ns">
    <!-- Generator: Sketch 3.4 (15575) - http://www.bohemiancoding.com/sketch -->
    <title>Imported Layers Copy 4</title>
    <desc>Created with Sketch.</desc>
    <defs></defs>
    <g id="Single" stroke="none" stroke-width="1" fill="none" fill-rule="evenodd" sketch:type="MSPage">
        <g id="article" sketch:type="MSArtboardGroup" transform="translate(-730.000000, -2556.000000)" fill="#FFFFFF">
            <path d="M732.631028,2560.61302 L732.607951,2560.61302 C731.93872,2560.61302 731.394105,2560.41988 730.974105,2560.02917 C730.554105,2559.64142 730.343335,2559.1593 730.343335,2558.58578 C730.343335,2557.99898 730.557182,2557.51539 730.984874,2557.13206 C731.412566,2556.7502 731.974105,2556.55853 732.672566,2556.55853 C733.357182,2556.55853 733.904874,2556.7502 734.31872,2557.13206 C734.731028,2557.51539 734.944874,2557.99898 734.95872,2558.58578 C734.95872,2559.1593 734.746412,2559.64142 734.31872,2560.02917 C733.891028,2560.41988 733.327951,2560.61302 732.631028,2560.61302 L732.631028,2560.61302 Z M730.727951,2562.45597 L734.574105,2562.45597 L734.574105,2573.88225 L730.727951,2573.88225 L730.727951,2562.45597 Z M740.727951,2573.88225 L740.727951,2567.24763 C740.727951,2566.53847 740.931028,2565.99296 741.337182,2565.60962 C741.743335,2565.22776 742.252566,2565.0361 742.864874,2565.0361 C743.492566,2565.0361 743.997182,2565.2484 744.381797,2565.67155 C744.766412,2566.09469 744.95872,2566.7434 744.95872,2567.61622 L744.95872,2573.88225 L748.804874,2573.88225 L748.804874,2567.24763 C748.804874,2565.62437 748.381797,2564.35789 747.534105,2563.44969 C746.686412,2562.54148 745.571028,2562.08738 744.189489,2562.08738 C742.780259,2562.08738 741.626412,2562.7361 740.727951,2564.03353 L740.600259,2562.45597 L736.81872,2562.45597 L736.881797,2565.0361 L736.881797,2573.88225 L740.727951,2573.88225 L740.727951,2573.88225 Z" id="Imported-Layers-Copy-4" sketch:type="MSShapeGroup"></path>
        </g>
    </g>
</svg>
