<?xml version="1.0" encoding="UTF-8" standalone="no"?>
<svg width="22px" height="18px" viewBox="0 0 22 18" version="1.1" xmlns="http://www.w3.org/2000/svg" xmlns:xlink="http://www.w3.org/1999/xlink" xmlns:sketch="http://www.bohemiancoding.com/sketch/ns">
    <!-- Generator: Sketch 3.4 (15575) - http://www.bohemiancoding.com/sketch -->
    <title>Imported Layers Copy 6</title>
    <desc>Created with Sketch.</desc>
    <defs></defs>
    <g id="Single" stroke="none" stroke-width="1" fill="none" fill-rule="evenodd" sketch:type="MSPage">
        <g id="Mobile-Nav" sketch:type="MSArtboardGroup" transform="translate(-103.000000, -3046.000000)" fill="#FFFFFF">
            <path d="M124.4459,3048.51736 C123.869553,3049.37986 123.1634,3050.11471 122.3309,3050.72191 L122.3309,3051.27219 C122.3309,3052.40724 122.166476,3053.54056 121.83763,3054.67561 C121.508784,3055.80894 121.00513,3056.89914 120.323207,3057.94621 C119.643015,3058.99156 118.829553,3059.91444 117.884553,3060.71311 C116.937823,3061.51179 115.804169,3062.15004 114.481861,3062.62959 C113.159553,3063.10914 111.736861,3063.34719 110.215515,3063.34719 C107.652246,3063.34719 105.471476,3062.77276 103.676669,3061.62219 C104.012438,3061.67049 104.349938,3061.69464 104.687438,3061.69464 C106.528976,3061.69464 108.29263,3061.02361 109.974938,3059.68156 C109.061092,3059.66604 108.240707,3059.38314 107.512053,3058.83114 C106.781669,3058.28086 106.281476,3057.58224 106.008015,3056.73526 C106.281476,3056.78356 106.544553,3056.80771 106.802438,3056.80771 C107.186669,3056.80771 107.562246,3056.75941 107.93263,3056.66281 C106.954746,3056.47134 106.141284,3055.98489 105.492246,3055.20174 C104.843207,3054.42031 104.519553,3053.51641 104.519553,3052.49521 L104.519553,3052.44691 C105.127053,3052.78156 105.769169,3052.95924 106.440707,3052.97476 C105.175515,3052.12779 104.542053,3050.95306 104.542053,3049.45231 C104.542053,3048.75024 104.7359,3048.06196 105.12013,3047.39094 C106.193207,3048.68469 107.486092,3049.71279 109.000515,3050.47006 C110.514938,3051.22906 112.147053,3051.65686 113.8934,3051.75174 C113.829361,3051.48091 113.796476,3051.15316 113.796476,3050.77021 C113.796476,3049.60411 114.21013,3048.60534 115.035707,3047.77561 C115.859553,3046.94416 116.86513,3046.52844 118.052438,3046.52844 C119.269169,3046.52844 120.312823,3046.97694 121.178207,3047.87049 C122.121476,3047.67901 123.019746,3047.33574 123.869553,3046.84066 C123.549361,3047.86359 122.922823,3048.64501 121.99513,3049.18839 C122.812053,3049.09351 123.628976,3048.86926 124.4459,3048.51736" id="Imported-Layers-Copy-6" sketch:type="MSShapeGroup"></path>
        </g>
    </g>
</svg>
