<?xml version="1.0" encoding="utf-8"?>
<!-- Generator: Adobe Illustrator 18.1.1, SVG Export Plug-In . SVG Version: 6.00 Build 0)  -->
<svg width="40px" height="40px" version="1.1" id="Layer" xmlns="http://www.w3.org/2000/svg" xmlns:xlink="http://www.w3.org/1999/xlink" x="0px" y="0px"
	 viewBox="0 0 40 40" enable-background="new 0 0 40 40" xml:space="preserve">
<g id="Landing_1_">
	<path id="Rectangle-28-Copy-12" fill="none" stroke="#FFFFFF" d="M20,0L20,0c11,0,20,9,20,20l0,0c0,11-9,20-20,20l0,0
		C9,40,0,31,0,20l0,0C0,9,9,0,20,0z"/>
</g>
<g>
	<path fill="#FFFFFF" d="M28,20.6c-0.5-0.5-1.2-0.8-1.9-1c-0.5-0.2-0.5-0.2-0.4-0.7c0.1-0.4,0.3-0.8,0.3-1.2c0-0.8-0.4-1.4-1.1-1.7
		c-0.3-0.1-0.7-0.2-1-0.2c-1,0-1.9,0.2-2.9,0.5c-0.3,0.1-0.7,0.3-1,0.4s-0.4,0-0.3-0.4v-0.1c0.1-0.5,0.2-1.1,0.2-1.7
		c-0.1-0.7-0.5-1.3-1.2-1.5c-0.4-0.1-0.8-0.1-1.1-0.1c-0.7,0.1-1.4,0.3-2.1,0.7c-1.2,0.6-2.3,1.3-3.3,2.2c-1.3,1.2-2.4,2.5-3.3,4
		c-0.5,0.9-0.9,1.7-1,2.7c0,0.2-0.1,0.5-0.1,0.7s0,0.3,0,0.5s0.1,0.4,0.1,0.6c0.2,1.1,0.8,2,1.6,2.7c0.9,0.8,1.9,1.4,3,1.9
		c1.4,0.6,2.9,0.9,4.5,1c0.2,0,0.4,0,0.6,0c0.4,0,0.8,0,1.2,0c0.1,0,0.1,0,0.2,0c0.6-0.1,1.2-0.1,1.9-0.2c1.1-0.2,2.2-0.5,3.2-0.9
		c1.3-0.6,2.5-1.3,3.5-2.4c0.7-0.7,1.2-1.5,1.5-2.4C29.4,22.7,29.1,21.6,28,20.6z M24.4,25.1c-0.5,0.9-1.3,1.5-2.1,2
		c-1.1,0.7-2.4,1.1-3.7,1.3c-0.5,0.1-1.1,0.1-1.6,0.2c-1.4,0-2.7-0.3-3.9-0.8c-0.8-0.4-1.6-0.9-2.1-1.6c-0.9-1.2-1-2.7-0.2-4
		c0.5-0.9,1.3-1.5,2.1-2c1.2-0.7,2.4-1.1,3.7-1.3c1-0.1,2-0.2,3,0c1.3,0.2,2.5,0.6,3.5,1.3c0.7,0.5,1.2,1.1,1.6,1.8
		C25.1,23.1,25,24.1,24.4,25.1z"/>
	<path fill="#FFFFFF" d="M32.2,15.4c-0.4-2.3-1.7-3.9-3.9-4.9c-0.6-0.3-1.3-0.4-2-0.5h-0.1c-0.3,0-0.6,0-0.9,0h-0.1
		c-0.3,0-0.5,0.1-0.8,0.1c-0.5,0.1-0.8,0.6-0.7,1.1c0.1,0.5,0.6,0.8,1.1,0.7c0.9-0.2,1.7-0.1,2.5,0.2c1.8,0.6,3,2.4,3.1,4.2
		c0,0.5-0.1,1.1-0.2,1.6c-0.2,0.5,0.1,1,0.6,1.2s1-0.1,1.2-0.6c0.1-0.3,0.2-0.6,0.2-0.9c0.1-0.3,0.1-0.5,0.1-0.8c0-0.2,0-0.4,0-0.6
		C32.3,16,32.2,15.7,32.2,15.4z"/>
	<path fill="#FFFFFF" d="M27.2,17.2c0,0.4,0.3,0.8,0.7,0.8c0.4,0.1,0.8-0.2,0.9-0.5c0.1-0.4,0.2-0.9,0.1-1.3
		c-0.2-1.6-1.5-2.8-3.1-2.8c-0.2,0-0.4,0-0.6,0.1c-0.5,0.1-0.8,0.5-0.7,1c0.1,0.4,0.5,0.7,1,0.6c0.2,0,0.4,0,0.6,0
		c0.9,0.2,1.4,1,1.2,1.9C27.2,17.1,27.2,17.2,27.2,17.2z"/>
	<path fill="#FFFFFF" d="M19.9,21.6c-0.7-0.6-1.6-0.9-2.5-0.9c-0.1,0-0.2,0-0.3,0c-0.1,0-0.3,0-0.4,0c-1.2,0.2-2.2,0.8-2.9,1.8
		c-0.5,0.7-0.8,1.5-0.6,2.4c0.2,1.1,0.9,1.8,1.9,2.3c1.1,0.5,2.3,0.4,3.4-0.1c1-0.4,1.7-1.1,2.1-2C21.2,23.9,20.9,22.5,19.9,21.6z
		 M17,25.3c-0.3,0.5-0.8,0.7-1.2,0.7c-0.7,0-1.1-0.3-1.2-0.9c-0.1-0.3,0-0.6,0.2-0.9c0.4-0.5,0.9-0.8,1.5-0.7
		C17.1,23.7,17.4,24.6,17,25.3z M18,23.9c-0.2,0.1-0.4,0.1-0.6,0c-0.1-0.1-0.2-0.2-0.2-0.4c0.1-0.3,0.4-0.5,0.7-0.5
		c0.2,0,0.3,0.2,0.3,0.4C18.3,23.6,18.2,23.8,18,23.9z"/>
</g>
</svg>
