<?xml version="1.0" encoding="utf-8"?>
<!-- Generator: Adobe Illustrator 18.1.1, SVG Export Plug-In . SVG Version: 6.00 Build 0)  -->
<svg width="22px" height="18px" version="1.1" id="Layer_2" xmlns="http://www.w3.org/2000/svg" xmlns:xlink="http://www.w3.org/1999/xlink" x="0px" y="0px"
	 viewBox="-468 272 22 18" enable-background="new -468 272 22 18" xml:space="preserve">
<g>
	<path fill="#FFFFFF" d="M-467.3,283.6c0-0.2,0-0.4,0.1-0.6c0.1-0.8,0.5-1.6,0.9-2.3c0.7-1.3,1.7-2.4,2.8-3.4
		c0.8-0.7,1.7-1.4,2.8-1.9c0.6-0.3,1.2-0.5,1.8-0.6c0.3,0,0.6,0,1,0.1c0.6,0.2,1,0.6,1.1,1.2c0.1,0.5,0,0.9-0.1,1.4c0,0,0,0.1,0,0.1
		c-0.1,0.3,0,0.4,0.3,0.3c0.3-0.1,0.6-0.2,0.9-0.3c0.8-0.3,1.6-0.5,2.4-0.4c0.3,0,0.6,0.1,0.9,0.2c0.6,0.3,0.9,0.8,0.9,1.5
		c0,0.4-0.1,0.7-0.2,1c-0.2,0.4-0.1,0.5,0.3,0.6c0.6,0.2,1.1,0.4,1.6,0.8c0.9,0.8,1.1,1.8,0.8,2.9c-0.2,0.8-0.7,1.4-1.3,2
		c-0.9,0.9-1.9,1.5-3,2c-0.9,0.4-1.8,0.6-2.7,0.8c-0.5,0.1-1,0.1-1.6,0.2c0,0-0.1,0-0.1,0c-0.3,0-0.7,0-1,0c-0.2,0-0.3,0-0.5,0
		c-1.3-0.1-2.6-0.4-3.8-0.9c-0.9-0.4-1.8-0.9-2.5-1.6c-0.7-0.6-1.1-1.4-1.3-2.3c0-0.2-0.1-0.4-0.1-0.5
		C-467.3,283.9-467.3,283.8-467.3,283.6z M-459.5,288.2c0.5,0,0.9-0.1,1.4-0.1c1.1-0.1,2.2-0.5,3.1-1.1c0.7-0.4,1.3-1,1.8-1.7
		c0.5-0.8,0.6-1.7,0.3-2.6c-0.3-0.7-0.7-1.2-1.3-1.6c-0.9-0.6-1.9-0.9-3-1.1c-0.8-0.1-1.7-0.1-2.5,0c-1.1,0.2-2.2,0.5-3.1,1.1
		c-0.7,0.4-1.4,1-1.8,1.7c-0.7,1.1-0.6,2.4,0.2,3.4c0.5,0.6,1.1,1,1.8,1.3C-461.7,288-460.6,288.1-459.5,288.2z"/>
	<path fill="#FFFFFF" d="M-446.6,278.3c0,0.2,0,0.5-0.1,0.7c-0.1,0.3-0.1,0.5-0.2,0.8c-0.1,0.4-0.6,0.6-1,0.5
		c-0.4-0.1-0.6-0.6-0.5-1c0.1-0.4,0.2-0.9,0.2-1.3c0-1.6-1.1-3-2.6-3.6c-0.7-0.2-1.4-0.3-2.1-0.1c-0.4,0.1-0.8-0.2-0.9-0.6
		c-0.1-0.4,0.2-0.8,0.6-0.9c0.2-0.1,0.4-0.1,0.7-0.1c0,0,0.1,0,0.1,0c0.2,0,0.5,0,0.7,0c0,0,0,0,0.1,0c0.6,0,1.2,0.2,1.7,0.4
		c1.8,0.8,2.9,2.2,3.3,4.1c0,0.2,0.1,0.5,0.1,0.7C-446.6,277.9-446.6,278.1-446.6,278.3z"/>
	<path fill="#FFFFFF" d="M-452.1,275.4c1.4,0,2.5,1,2.6,2.4c0,0.4,0,0.7-0.1,1.1c-0.1,0.3-0.4,0.5-0.8,0.5c-0.3-0.1-0.6-0.4-0.6-0.7
		c0-0.1,0-0.2,0-0.2c0.2-0.8-0.2-1.5-1-1.6c-0.2,0-0.3,0-0.5,0c-0.4,0.1-0.8-0.2-0.8-0.5c-0.1-0.4,0.2-0.7,0.6-0.8
		C-452.4,275.4-452.2,275.4-452.1,275.4z"/>
	<path fill="#FFFFFF" d="M-459.1,281.6c0.8,0,1.5,0.2,2.1,0.7c0.9,0.8,1.1,1.9,0.6,3c-0.4,0.8-1,1.4-1.8,1.7c-0.9,0.4-1.9,0.4-2.8,0
		c-0.9-0.4-1.4-1-1.6-1.9c-0.1-0.7,0.1-1.4,0.5-2c0.6-0.8,1.5-1.3,2.5-1.5c0.1,0,0.2,0,0.3,0C-459.3,281.6-459.2,281.6-459.1,281.6z
		 M-460.5,286c0.4,0,0.8-0.2,1-0.6c0.4-0.6,0.1-1.4-0.6-1.5c-0.5-0.1-1,0.1-1.3,0.6c-0.2,0.2-0.2,0.5-0.2,0.8
		C-461.5,285.8-461.1,286-460.5,286z M-458.3,283.8c0-0.2-0.1-0.3-0.3-0.3c-0.3-0.1-0.6,0.1-0.6,0.4c0,0.1,0,0.3,0.2,0.3
		c0.2,0.1,0.3,0.1,0.5,0C-458.4,284.1-458.4,284-458.3,283.8z"/>
</g>
</svg>
