<?xml version="1.0" encoding="UTF-8" standalone="no"?>
<svg width="22px" height="22px" viewBox="0 0 22 22" version="1.1" xmlns="http://www.w3.org/2000/svg" xmlns:xlink="http://www.w3.org/1999/xlink" xmlns:sketch="http://www.bohemiancoding.com/sketch/ns">
    <title>Whatsapp</title>
    <desc></desc>
    <defs></defs>
    <g id="Page-1" stroke="none" stroke-width="1" fill="none" fill-rule="evenodd" sketch:type="MSPage">
        <g id="whatsapp-logo" sketch:type="MSLayerGroup" fill="#FFFFFF">
            <g id="Page-1" sketch:type="MSShapeGroup">
                <g id="whatsapp-logo">
                    <g id="Single">
                        <g id="Mobile-Nav">
                            <path d="M16.263466,8.84819082 C15.9929359,8.99526205 14.6625895,9.70741522 14.4132845,9.80808048 C14.1639795,9.90874574 13.9819472,9.96122018 13.7880433,9.6938504 C13.5937796,9.42755152 13.0419269,8.8310563 12.8746443,8.65435664 C12.7066422,8.47765699 12.5451156,8.46123641 12.2745855,8.60866461 C12.0040553,8.75537887 11.1262714,9.07772189 10.1089054,10.0483206 C9.31674134,10.803667 8.79726592,11.7200065 8.64653171,11.9998702 C8.49579749,12.2793769 8.64545246,12.4221645 8.78863198,12.5531722 C8.91742159,12.6713289 9.07643,12.8626643 9.22032901,13.0172319 C9.36386827,13.1717994 9.41459267,13.2838877 9.51316349,13.4630862 C9.61209406,13.6422846 9.57216208,13.8036346 9.50848677,13.9428525 C9.44445171,14.0824274 8.94404291,15.4489048 8.7350296,16.0050625 C8.52601629,16.5608632 8.29289989,16.4784034 8.13209275,16.4844718 C7.97128561,16.4905403 7.78817412,16.5201687 7.60434313,16.5269512 C7.42051215,16.5337336 7.11940347,16.4766185 6.85642803,16.2117475 C6.5934526,15.9479474 5.85632992,15.3125426 5.80560552,13.9664125 C5.75488112,12.6206393 6.69310266,11.2830764 6.82405076,11.0960247 C6.95499886,10.908259 8.61631291,7.99075126 11.3773752,6.79062145 C14.1387971,5.59120558 14.1528273,5.95674185 14.6597115,5.98387149 C15.1669556,6.0102872 16.3159891,6.5850073 16.5699709,7.2150576 C16.8239526,7.84475093 16.8444583,8.39269836 16.7797037,8.50942723 C16.7149491,8.62579912 16.5336364,8.70147655 16.263466,8.84819082 M11.1996599,2.36206393 C9.37358145,2.36206393 7.67305491,2.90572773 6.25313144,3.83705987 L2.79811623,2.73973714 L3.921248,6.05240954 C2.84488341,7.52347883 2.20920954,9.33081292 2.20920954,11.2830764 C2.20920954,16.2028233 6.24233901,20.2048029 11.1996599,20.2048029 C16.1573405,20.2048029 20.19047,16.2028233 20.19047,11.2830764 C20.19047,6.36404349 16.1573405,2.36206393 11.1996599,2.36206393 M11.1996599,22 C5.23504595,22 0.399679498,17.2019796 0.399679498,11.2830764 C0.399679498,9.25834821 0.966281846,7.36498459 1.94947183,5.74934285 L0,0 L5.97972332,1.89943209 C7.52699742,1.05055979 9.30630866,0.566509817 11.1996599,0.566509817 C17.1642738,0.566509817 22,5.36488723 22,11.2830764 C22,17.2019796 17.1642738,22 11.1996599,22" id="Shape" transform="translate(11.000000, 11.000000) rotate(-90.000000) translate(-11.000000, -11.000000) "></path>
                        </g>
                    </g>
                </g>
            </g>
        </g>
    </g>
</svg>