<svg width="19" height="18" viewBox="0 0 19 18" xmlns="http://www.w3.org/2000/svg"><title>Imported Layers Copy 4</title><path d="M2.631 4.613h-.023c-.67 0-1.214-.193-1.634-.584-.42-.388-.63-.87-.63-1.443 0-.587.213-1.07.64-1.454.43-.382.991-.572 1.69-.572.684 0 1.232.191 1.646.573.412.383.626.867.64 1.454a1.87 1.87 0 0 1-.64 1.443c-.428.39-.991.584-1.688.584zM.728 6.456h3.846v11.426H.728V6.456zm10 11.426v-6.634c0-.71.203-1.255.61-1.638.405-.382.915-.574 1.527-.574.628 0 1.132.212 1.517.636.384.423.577 1.071.577 1.944v6.266h3.846v-6.634c0-1.624-.423-2.89-1.27-3.798-.849-.909-1.964-1.363-3.346-1.363-1.409 0-2.563.65-3.461 1.947L10.6 6.456H6.82l.063 2.58v8.846h3.846z" fill="#FFF" fill-rule="evenodd"/></svg>