<svg width="40" height="40" viewBox="0 0 40 40" xmlns="http://www.w3.org/2000/svg"><title>Rectangle 28 Copy 11 + Imported Layers</title><g fill="none" fill-rule="evenodd"><rect stroke="#FFF" width="40" height="40" rx="40"/><path d="M13.288 14.054h-.023c-.67 0-1.214-.193-1.634-.583A1.888 1.888 0 0 1 11 12.027c0-.587.214-1.07.642-1.453.427-.382.989-.574 1.687-.574.685 0 1.233.192 1.646.574.413.383.627.866.64 1.453a1.87 1.87 0 0 1-.64 1.444c-.427.39-.99.583-1.687.583zm-1.903 1.843h3.846v11.427h-3.846V15.897zm10 11.427v-6.635c0-.71.203-1.255.609-1.638.406-.382.915-.573 1.528-.573.627 0 1.132.212 1.516.635.385.423.577 1.072.577 1.945v6.266h3.847v-6.635c0-1.623-.424-2.89-1.271-3.798-.848-.908-1.963-1.362-3.345-1.362-1.41 0-2.563.649-3.461 1.946l-.128-1.578h-3.782l.063 2.58v8.847h3.847z" fill="#FFF"/></g></svg>