<svg width="22" height="18" viewBox="0 0 22 18" xmlns="http://www.w3.org/2000/svg"><title>Imported Layers Copy 6</title><path d="M21.446 2.517a8.672 8.672 0 0 1-2.115 2.205v.55a12.173 12.173 0 0 1-2.008 6.674 12.601 12.601 0 0 1-2.438 2.767c-.947.799-2.08 1.437-3.403 1.917-1.322.48-2.745.717-4.266.717-2.564 0-4.745-.574-6.54-1.725.336.048.674.073 1.011.073 1.842 0 3.606-.671 5.288-2.013a4.094 4.094 0 0 1-2.463-.85 4.178 4.178 0 0 1-1.504-2.097 4.454 4.454 0 0 0 1.925-.072 4.113 4.113 0 0 1-2.44-1.461 4.115 4.115 0 0 1-.973-2.707v-.048c.607.335 1.25.512 1.92.528-1.264-.847-1.898-2.022-1.898-3.523 0-.702.194-1.39.578-2.061A11.906 11.906 0 0 0 6 4.47a12.292 12.292 0 0 0 4.893 1.28 4.325 4.325 0 0 1-.097-.98c0-1.167.414-2.166 1.24-2.995.824-.832 1.83-1.248 3.016-1.248 1.217 0 2.26.449 3.126 1.342A8.792 8.792 0 0 0 20.87.84a4.032 4.032 0 0 1-1.875 2.348 8.725 8.725 0 0 0 2.45-.67" fill="#FFF" fill-rule="evenodd"/></svg>