<svg width="40" height="40" xmlns="http://www.w3.org/2000/svg" viewBox="0 0 40 40"><path fill="none" stroke="#FFF" d="M20 0c11 0 20 9 20 20s-9 20-20 20S0 31 0 20 9 0 20 0z"/><g fill="#FFF"><path d="M28 20.6c-.5-.5-1.2-.8-1.9-1-.5-.2-.5-.2-.4-.7.1-.4.3-.8.3-1.2 0-.8-.4-1.4-1.1-1.7-.3-.1-.7-.2-1-.2-1 0-1.9.2-2.9.5-.3.1-.7.3-1 .4s-.4 0-.3-.4v-.1c.1-.5.2-1.1.2-1.7-.1-.7-.5-1.3-1.2-1.5-.4-.1-.8-.1-1.1-.1-.7.1-1.4.3-2.1.7-1.2.6-2.3 1.3-3.3 2.2-1.3 1.2-2.4 2.5-3.3 4-.5.9-.9 1.7-1 2.7 0 .2-.1.5-.1.7v.5c0 .2.1.4.1.6.2 1.1.8 2 1.6 2.7.9.8 1.9 1.4 3 1.9 1.4.6 2.9.9 4.5 1h2c.6-.1 1.2-.1 1.9-.2 1.1-.2 2.2-.5 3.2-.9 1.3-.6 2.5-1.3 3.5-2.4.7-.7 1.2-1.5 1.5-2.4.3-1.3 0-2.4-1.1-3.4zm-3.6 4.5c-.5.9-1.3 1.5-2.1 2-1.1.7-2.4 1.1-3.7 1.3-.5.1-1.1.1-1.6.2-1.4 0-2.7-.3-3.9-.8-.8-.4-1.6-.9-2.1-1.6-.9-1.2-1-2.7-.2-4 .5-.9 1.3-1.5 2.1-2 1.2-.7 2.4-1.1 3.7-1.3 1-.1 2-.2 3 0 1.3.2 2.5.6 3.5 1.3.7.5 1.2 1.1 1.6 1.8.4 1.1.3 2.1-.3 3.1zm7.8-9.7c-.4-2.3-1.7-3.9-3.9-4.9-.6-.3-1.3-.4-2-.5h-1.1c-.3 0-.5.1-.8.1-.5.1-.8.6-.7 1.1.1.5.6.8 1.1.7.9-.2 1.7-.1 2.5.2 1.8.6 3 2.4 3.1 4.2 0 .5-.1 1.1-.2 1.6-.2.5.1 1 .6 1.2s1-.1 1.2-.6c.1-.3.2-.6.2-.9.1-.3.1-.5.1-.8v-.6c0-.2-.1-.5-.1-.8z"/><path d="M27.2 17.2c0 .4.3.8.7.8.4.1.8-.2.9-.5.1-.4.2-.9.1-1.3-.2-1.6-1.5-2.8-3.1-2.8-.2 0-.4 0-.6.1-.5.1-.8.5-.7 1 .1.4.5.7 1 .6h.6c.9.2 1.4 1 1.2 1.9-.1.1-.1.2-.1.2zm-7.3 4.4c-.7-.6-1.6-.9-2.5-.9h-.7c-1.2.2-2.2.8-2.9 1.8-.5.7-.8 1.5-.6 2.4.2 1.1.9 1.8 1.9 2.3 1.1.5 2.3.4 3.4-.1 1-.4 1.7-1.1 2.1-2 .6-1.2.3-2.6-.7-3.5zM17 25.3c-.3.5-.8.7-1.2.7-.7 0-1.1-.3-1.2-.9-.1-.3 0-.6.2-.9.4-.5.9-.8 1.5-.7.8.2 1.1 1.1.7 1.8zm1-1.4c-.2.1-.4.1-.6 0-.1-.1-.2-.2-.2-.4.1-.3.4-.5.7-.5.2 0 .3.2.3.4.1.2 0 .4-.2.5z"/></g></svg>