<svg width="22" height="18" xmlns="http://www.w3.org/2000/svg" viewBox="-468 272 22 18"><g fill="#FFF"><path d="M-467.3 283.6c0-.2 0-.4.1-.6.1-.8.5-1.6.9-2.3.7-1.3 1.7-2.4 2.8-3.4.8-.7 1.7-1.4 2.8-1.9.6-.3 1.2-.5 1.8-.6.3 0 .6 0 1 .1.6.2 1 .6 1.1 1.2.1.5 0 .9-.1 1.4v.1c-.1.3 0 .4.3.3l.9-.3c.8-.3 1.6-.5 2.4-.4.3 0 .6.1.9.2.6.3.9.8.9 1.5 0 .4-.1.7-.2 1-.2.4-.1.5.3.6.6.2 1.1.4 1.6.8.9.8 1.1 1.8.8 2.9-.2.8-.7 1.4-1.3 2-.9.9-1.9 1.5-3 2-.9.4-1.8.6-2.7.8-.5.1-1 .1-1.6.2h-1.6c-1.3-.1-2.6-.4-3.8-.9-.9-.4-1.8-.9-2.5-1.6-.7-.6-1.1-1.4-1.3-2.3 0-.2-.1-.4-.1-.5-.4 0-.4-.1-.4-.3zm7.8 4.6c.5 0 .9-.1 1.4-.1 1.1-.1 2.2-.5 3.1-1.1.7-.4 1.3-1 1.8-1.7.5-.8.6-1.7.3-2.6-.3-.7-.7-1.2-1.3-1.6-.9-.6-1.9-.9-3-1.1-.8-.1-1.7-.1-2.5 0-1.1.2-2.2.5-3.1 1.1-.7.4-1.4 1-1.8 1.7-.7 1.1-.6 2.4.2 3.4.5.6 1.1 1 1.8 1.3.9.5 2 .6 3.1.7zm12.9-9.9c0 .2 0 .5-.1.7-.1.3-.1.5-.2.8-.1.4-.6.6-1 .5-.4-.1-.6-.6-.5-1 .1-.4.2-.9.2-1.3 0-1.6-1.1-3-2.6-3.6-.7-.2-1.4-.3-2.1-.1-.4.1-.8-.2-.9-.6-.1-.4.2-.8.6-.9.2-.1.4-.1.7-.1h.9c.6 0 1.2.2 1.7.4 1.8.8 2.9 2.2 3.3 4.1 0 .2.1.5.1.7-.1 0-.1.2-.1.4z"/><path d="M-452.1 275.4c1.4 0 2.5 1 2.6 2.4 0 .4 0 .7-.1 1.1-.1.3-.4.5-.8.5-.3-.1-.6-.4-.6-.7v-.2c.2-.8-.2-1.5-1-1.6h-.5c-.4.1-.8-.2-.8-.5-.1-.4.2-.7.6-.8.3-.2.5-.2.6-.2zm-7 6.2c.8 0 1.5.2 2.1.7.9.8 1.1 1.9.6 3-.4.8-1 1.4-1.8 1.7-.9.4-1.9.4-2.8 0-.9-.4-1.4-1-1.6-1.9-.1-.7.1-1.4.5-2 .6-.8 1.5-1.3 2.5-1.5h.5zm-1.4 4.4c.4 0 .8-.2 1-.6.4-.6.1-1.4-.6-1.5-.5-.1-1 .1-1.3.6-.2.2-.2.5-.2.8.1.5.5.7 1.1.7zm2.2-2.2c0-.2-.1-.3-.3-.3-.3-.1-.6.1-.6.4 0 .1 0 .3.2.3.2.1.3.1.5 0 .1-.1.1-.2.2-.4z"/></g></svg>