<svg width="22" height="22" viewBox="0 0 22 22" xmlns="http://www.w3.org/2000/svg"><title>Whatsapp</title><path d="M8.848 5.737c.147.27.86 1.6.96 1.85.1.249.153.431-.114.625-.266.194-.863.746-1.04.913-.176.168-.193.33-.045.6.146.27.469 1.149 1.44 2.166.755.792 1.671 1.312 1.95 1.462.28.151.423.002.554-.142.118-.128.31-.287.464-.431.155-.144.267-.195.446-.293.18-.1.34-.06.48.005.14.064 1.506.564 2.062.773.556.209.473.442.48.603.006.16.035.344.042.528.007.183-.05.485-.315.748-.264.263-.9 1-2.246 1.05-1.345.051-2.683-.887-2.87-1.018-.188-.131-3.105-1.792-4.305-4.553-1.2-2.762-.834-2.776-.807-3.283.026-.507.601-1.656 1.231-1.91.63-.254 1.178-.274 1.294-.21.117.065.192.246.34.517M2.361 10.8c0 1.826.544 3.527 1.475 4.947L2.74 19.202l3.312-1.123a8.828 8.828 0 0 0 5.231 1.712c4.92 0 8.922-4.033 8.922-8.99 0-4.958-4.002-8.991-8.922-8.991-4.919 0-8.92 4.033-8.92 8.99M22 10.8c0 5.965-4.798 10.8-10.717 10.8-2.025 0-3.918-.566-5.534-1.55L0 22l1.9-5.98A10.821 10.821 0 0 1 .566 10.8C.567 4.836 5.365 0 11.283 0 17.202 0 22 4.836 22 10.8" fill="#FFF" fill-rule="evenodd"/></svg>